<?xml version="1.0" standalone="no"?>
<!DOCTYPE svg PUBLIC "-//W3C//DTD SVG 20010904//EN"
 "http://www.w3.org/TR/2001/REC-SVG-20010904/DTD/svg10.dtd">
<svg version="1.0" xmlns="http://www.w3.org/2000/svg"
 width="1024.000000pt" height="1024.000000pt" viewBox="0 0 1024.000000 1024.000000"
 preserveAspectRatio="xMidYMid meet">

<g transform="translate(0.000000,1024.000000) scale(0.100000,-0.100000)"
fill="#000000" stroke="none">
<path d="M0 5120 l0 -5120 5120 0 5120 0 0 5120 0 5120 -5120 0 -5120 0 0
-5120z m5826 4557 c23 -39 64 -112 92 -162 58 -102 124 -255 171 -398 27 -81
36 -97 50 -92 29 12 185 43 246 50 45 5 65 3 80 -8 18 -14 19 -19 7 -88 -18
-105 -64 -235 -137 -387 -49 -101 -63 -140 -59 -161 5 -25 25 -37 172 -109
209 -101 378 -202 445 -265 l51 -50 -30 -23 c-48 -40 -396 -164 -457 -164 -37
0 -20 -24 99 -141 70 -68 154 -155 187 -194 55 -64 75 -78 216 -154 275 -148
502 -255 666 -315 203 -75 505 -176 525 -176 33 0 91 -22 87 -33 -4 -12 -58
-55 -136 -107 -145 -97 -498 -181 -873 -206 l-96 -7 56 -86 c178 -272 332
-559 392 -726 61 -173 75 -319 41 -445 -23 -88 -39 -90 -123 -12 -34 32 -104
86 -154 120 -50 33 -137 97 -193 142 -101 80 -101 80 -86 43 65 -155 180 -285
310 -349 l79 -39 150 0 c92 0 175 5 214 14 67 15 84 10 64 -17 -6 -9 -25 -46
-42 -81 -17 -35 -47 -84 -68 -109 -20 -25 -44 -56 -52 -68 -30 -44 -306 -228
-418 -278 -23 -10 -42 -22 -42 -26 0 -24 158 -230 229 -299 l25 -23 -39 -24
c-21 -13 -64 -26 -94 -30 -73 -9 -316 2 -456 21 -60 8 -110 15 -111 15 -1 0
-4 -46 -7 -102 -8 -163 -82 -365 -206 -563 -27 -44 -46 -83 -43 -87 4 -3 90
-51 193 -106 231 -124 283 -158 336 -215 79 -86 99 -160 88 -336 -11 -188 -99
-591 -129 -591 -45 0 -267 67 -406 122 -310 123 -430 186 -430 225 0 22 -57
100 -94 128 -39 30 -76 33 -76 7 0 -11 9 -27 21 -38 11 -10 26 -28 31 -38 10
-19 9 -19 -23 1 l-33 21 -125 -63 c-194 -98 -380 -166 -446 -164 -146 4 -160
3 -215 -24 -30 -15 -73 -40 -95 -57 -22 -16 -48 -29 -58 -30 -9 0 -106 -18
-215 -40 -336 -67 -394 -73 -734 -75 -169 -1 -310 -4 -313 -7 -13 -13 -46
-162 -55 -246 -11 -102 -31 -160 -77 -213 -17 -18 -52 -83 -78 -144 -65 -151
-117 -250 -168 -317 -50 -67 -123 -144 -163 -174 l-29 -22 35 -37 c42 -44 167
-125 252 -164 53 -24 155 -59 293 -101 17 -5 98 -19 180 -30 220 -31 200 -21
159 -83 l-35 -54 -46 15 c-53 18 -104 9 -186 -33 -55 -28 -67 -30 -67 -12 0
28 -59 135 -88 159 -52 43 -156 56 -214 26 -12 -6 -18 -20 -18 -42 0 -34 0
-34 -78 -55 -163 -44 -374 -62 -520 -44 l-53 6 6 86 c6 76 14 157 32 314 5 43
4 47 -15 47 -27 0 -47 -31 -68 -101 -9 -29 -22 -63 -30 -74 -8 -11 -14 -29
-14 -41 0 -12 -18 -60 -40 -108 l-40 -86 -66 25 c-148 56 -263 134 -391 268
-170 177 -278 345 -346 540 -44 129 -50 155 -60 282 -12 161 3 304 49 462 27
94 71 212 85 227 4 5 19 -16 33 -48 34 -77 81 -140 126 -170 41 -27 137 -62
146 -53 3 3 -4 52 -15 109 -44 223 -64 513 -41 607 l12 53 -38 30 c-22 17 -94
86 -161 153 l-122 122 -25 -56 c-30 -67 -42 -134 -56 -306 -6 -71 -13 -138
-16 -147 -6 -19 1 -23 -85 52 -53 46 -131 155 -178 247 -99 198 -200 526 -201
652 0 37 -2 42 -17 36 -97 -37 -335 -86 -563 -116 -256 -34 -491 0 -564 80
-19 21 -19 21 15 21 90 1 333 74 438 133 143 79 281 186 389 302 101 108 146
180 183 294 l33 99 -26 84 c-14 45 -57 184 -96 308 -38 124 -75 252 -82 285
-7 33 -16 63 -19 67 -3 4 -40 -2 -81 -13 -41 -11 -104 -23 -139 -26 l-64 -6
32 47 c18 26 73 95 122 154 l89 106 0 161 c0 293 43 839 77 970 24 95 60 152
178 273 l110 114 -2 212 c-1 116 -5 334 -10 485 l-8 273 55 84 c30 46 57 84
60 84 3 0 23 -22 43 -50 57 -76 69 -70 109 58 18 59 39 107 45 107 6 0 52 -37
101 -82 50 -46 98 -83 106 -83 9 0 16 1 16 3 0 2 -36 109 -80 238 -116 342
-359 1064 -360 1067 0 1 7 2 15 2 9 0 52 -33 98 -73 45 -40 198 -175 340 -300
l258 -228 77 70 c75 67 188 151 203 151 24 0 69 -298 69 -462 l1 -93 57 -61
57 -61 145 13 c80 7 227 13 328 13 153 1 184 -1 188 -14 7 -18 -32 -87 -90
-158 -23 -29 -45 -57 -49 -64 -4 -6 44 16 105 49 196 105 424 206 529 233 145
38 307 1 632 -143 85 -38 151 -61 156 -56 4 5 115 151 246 324 130 173 247
325 259 337 22 22 195 98 203 89 3 -3 -9 -51 -26 -107 -17 -56 -28 -105 -25
-110 11 -18 52 -7 153 41 57 28 106 48 109 46 2 -3 9 -42 15 -88 l10 -83 43
205 c69 333 174 748 197 778 18 23 32 12 73 -61z m323 -7217 c63 -150 263
-514 343 -624 62 -86 29 -123 -221 -253 -68 -35 -131 -68 -140 -73 -50 -29
-280 -133 -352 -160 -46 -18 -93 -36 -104 -41 -19 -8 -145 -49 -210 -68 -293
-88 -815 -156 -1049 -136 -132 11 -130 6 -122 224 5 156 7 467 2 681 l-1 75
144 12 c80 6 203 21 274 33 71 12 131 19 134 17 2 -3 -12 -27 -33 -54 -56 -74
-68 -109 -54 -158 19 -62 65 -115 102 -115 59 0 155 79 267 219 18 23 35 40
37 38 2 -2 6 -89 9 -193 2 -104 7 -217 11 -252 6 -56 10 -64 35 -77 35 -19
113 -19 128 -2 8 10 3 68 -19 223 -16 115 -30 258 -32 318 l-3 109 45 13 c25
8 48 14 52 14 19 0 89 -183 163 -425 52 -172 58 -185 95 -185 43 0 82 62 88
140 4 54 0 66 -46 162 -27 56 -70 139 -95 183 -26 43 -44 81 -42 84 3 2 39
-19 82 -47 107 -70 189 -106 242 -106 39 -1 47 3 67 31 12 18 25 54 29 80 7
48 7 48 -41 90 -27 23 -77 56 -111 75 -35 18 -63 35 -63 38 0 3 45 28 100 55
55 26 133 70 173 95 82 54 76 55 116 -40z m427 -1152 c-17 -80 -27 -201 -18
-210 23 -23 47 -4 56 45 5 26 12 47 16 47 3 0 13 -15 21 -32 18 -43 64 -52 78
-16 6 13 10 17 10 9 1 -8 21 -46 45 -85 24 -39 56 -96 71 -126 26 -52 27 -55
9 -65 -34 -18 -139 -131 -159 -171 -10 -21 -20 -40 -21 -42 -1 -1 -29 17 -64
40 -57 40 -66 43 -125 42 -86 -1 -183 -53 -205 -108 -6 -17 -13 -9 -45 45 -21
35 -72 129 -113 208 l-74 145 43 21 c80 39 224 117 239 130 26 22 223 145 232
145 5 0 6 -10 4 -22z m350 -529 c16 -26 3 -150 -21 -204 -49 -112 -178 -205
-285 -205 -69 0 -274 126 -286 176 -4 17 2 35 21 59 34 45 59 61 114 74 38 8
49 6 88 -16 25 -14 66 -45 91 -69 25 -24 48 -44 51 -44 3 0 24 35 46 78 48 93
111 162 148 162 14 0 29 -5 33 -11z m-3212 -90 c41 -32 69 -96 69 -157 0 -46
3 -55 22 -64 19 -9 31 -3 85 38 61 48 64 49 130 49 38 0 72 -3 76 -7 10 -11
-36 -77 -99 -141 -45 -46 -61 -56 -100 -62 -102 -16 -211 22 -284 97 -58 60
-93 130 -93 187 0 40 4 49 28 63 40 26 132 24 166 -3z"/>
<path d="M6173 7696 c-28 -7 -63 -21 -78 -30 -46 -30 -49 -51 -21 -173 14 -61
26 -114 26 -117 0 -2 -37 12 -82 31 -46 20 -104 42 -130 49 -43 11 -52 10 -90
-9 -59 -30 -95 -86 -109 -172 -30 -176 36 -258 195 -241 l58 6 -16 -23 c-97
-131 -116 -180 -96 -241 18 -56 49 -86 122 -121 75 -36 147 -50 193 -37 37 10
88 76 112 142 10 28 20 50 23 50 3 0 11 -19 18 -42 17 -55 53 -102 104 -135
l40 -27 71 24 c53 18 84 37 127 77 50 46 140 164 140 183 0 19 -50 66 -122
117 l-80 56 53 14 c75 19 179 73 203 105 18 25 19 33 7 94 -7 37 -19 80 -27
95 -35 69 -138 159 -180 159 -15 0 -59 -30 -119 -80 -52 -45 -95 -77 -95 -73
0 4 7 31 16 58 19 61 22 182 6 212 -31 56 -150 77 -269 49z m179 -378 c45 -13
122 -77 143 -119 20 -37 19 -122 -1 -162 -57 -114 -187 -171 -302 -133 -150
50 -193 257 -75 368 57 55 148 72 235 46z"/>
<path d="M6252 7275 c0 -16 2 -22 5 -12 2 9 2 23 0 30 -3 6 -5 -1 -5 -18z"/>
<path d="M6410 7190 c-8 -5 -10 -10 -5 -10 6 0 17 5 25 10 8 5 11 10 5 10 -5
0 -17 -5 -25 -10z"/>
<path d="M6110 7159 c0 -5 9 -9 20 -9 11 0 20 2 20 4 0 2 -9 6 -20 9 -11 3
-20 1 -20 -4z"/>
<path d="M6660 6655 c0 -27 236 -375 440 -650 53 -71 101 -139 107 -150 5 -11
27 -82 48 -157 40 -148 45 -155 96 -120 90 60 137 122 124 163 -8 25 -74 63
-167 97 -50 18 -83 37 -100 57 -39 47 -416 590 -478 687 -54 86 -70 102 -70
73z"/>
<path d="M6405 6490 c73 -144 238 -525 314 -720 32 -83 36 -101 29 -145 -20
-133 -29 -258 -20 -267 24 -24 252 58 236 85 -36 61 -96 139 -143 186 -55 54
-59 62 -114 218 -90 256 -290 694 -321 706 -11 5 -5 -15 19 -63z"/>
<path d="M5872 5866 c-6 -47 -18 -101 -26 -120 -14 -34 -17 -36 -64 -36 -110
0 -212 -83 -267 -218 -63 -155 -74 -384 -23 -492 36 -76 96 -150 141 -173 78
-40 187 -15 241 56 57 75 100 219 116 391 11 118 3 196 -28 289 l-17 52 28 54
c44 87 33 182 -27 246 -52 55 -62 48 -74 -49z"/>
<path d="M3753 5749 c-1 -42 -7 -95 -13 -118 l-11 -41 -52 0 c-96 0 -178 -76
-222 -205 -55 -164 -33 -486 41 -604 91 -144 244 -162 374 -45 88 79 123 209
102 382 -15 126 -45 240 -86 326 -33 68 -33 68 -18 120 12 41 13 61 4 105 -15
71 -54 136 -89 148 l-28 10 -2 -78z"/>
<path d="M6081 4906 c-38 -45 33 -77 184 -83 100 -4 108 -3 91 11 -32 26 -169
79 -216 84 -34 3 -49 0 -59 -12z"/>
<path d="M5982 4768 c-35 -35 7 -87 116 -142 l54 -27 -7 23 c-13 41 -54 105
-86 132 -33 28 -58 33 -77 14z"/>
<path d="M3259 4732 c-24 -16 -69 -52 -99 -80 l-55 -51 50 5 c144 16 245 90
193 142 -18 18 -40 15 -89 -16z"/>
<path d="M3377 4581 c-26 -31 -52 -92 -81 -189 l-15 -53 47 41 c98 86 156 176
135 209 -18 29 -58 25 -86 -8z"/>
<path d="M5416 4204 c-80 -88 -197 -134 -341 -134 -111 0 -157 24 -205 104
l-34 58 -30 -38 c-16 -22 -57 -66 -90 -99 -80 -79 -160 -109 -287 -109 -69 1
-95 5 -140 26 -69 32 -167 106 -220 166 -40 45 -41 46 -34 17 21 -96 118 -211
217 -258 101 -48 262 -53 376 -13 57 20 125 69 158 112 l27 35 31 -32 c57 -59
106 -74 241 -74 101 0 130 4 186 24 90 32 156 82 180 136 22 49 36 136 23 134
-5 -1 -31 -25 -58 -55z"/>
<path d="M2690 3876 c0 -2 27 -81 59 -177 52 -153 79 -228 119 -331 l11 -26
141 55 c115 45 144 53 151 42 4 -8 32 -72 60 -144 82 -207 150 -506 119 -525
-11 -7 -4 -23 33 -77 26 -37 72 -96 103 -131 l56 -62 31 21 c18 12 78 56 134
98 l102 76 1 79 0 78 -44 -6 -43 -7 -6 168 c-8 230 -57 446 -107 473 -45 24
-52 13 -25 -39 53 -106 85 -278 88 -476 2 -102 -1 -127 -13 -135 -24 -15 -30
-12 -30 16 0 20 4 25 17 20 16 -6 16 -6 0 12 -21 23 -36 165 -18 176 6 4 11
12 11 18 0 7 -4 7 -14 -1 -11 -9 -15 -5 -20 20 -9 45 -8 47 17 51 21 4 21 5
-5 18 -41 20 -64 118 -35 150 10 12 9 12 -5 1 -14 -10 -17 -9 -22 8 -3 12 -9
30 -12 41 -5 18 -2 20 20 14 15 -4 26 -2 26 4 0 6 -13 13 -29 17 -24 5 -33 16
-51 64 -21 56 -22 58 -78 75 -218 67 -495 190 -654 290 -49 30 -88 54 -88 52z
m550 -416 c-8 -5 -7 -9 5 -13 8 -4 27 -30 40 -59 19 -42 22 -55 12 -67 -10
-12 -9 -14 5 -8 13 4 18 -1 23 -24 4 -17 4 -33 1 -36 -3 -4 0 -13 7 -22 21
-25 40 -107 33 -143 -4 -20 -3 -28 3 -19 10 16 16 7 26 -38 6 -27 4 -32 -6
-26 -8 5 -6 0 3 -11 25 -28 42 -117 29 -143 -15 -28 -14 -36 5 -20 14 11 15 9
12 -16 -4 -35 -38 -49 -38 -17 0 11 -11 78 -25 149 -31 155 -81 307 -141 426
-44 87 -44 88 -21 96 25 10 46 3 27 -9z"/>
<path d="M5537 3687 c-32 -18 -37 -26 -32 -47 11 -49 38 -110 46 -105 14 10
50 135 44 155 -8 25 -11 25 -58 -3z"/>
<path d="M5818 3479 c-52 -117 -58 -136 -51 -155 7 -19 96 198 91 224 -2 9
-20 -22 -40 -69z"/>
<path d="M5178 3510 c-26 -14 -38 -29 -43 -51 -8 -37 7 -58 28 -40 17 14 69
111 59 111 -4 -1 -23 -10 -44 -20z"/>
<path d="M5877 3464 c8 -22 -35 -116 -65 -142 -17 -14 -20 -20 -9 -16 16 6 17
2 11 -34 -5 -30 -1 -52 14 -84 11 -24 28 -62 38 -86 l18 -43 16 41 c9 23 21
45 28 49 6 4 14 45 18 91 6 78 4 91 -22 157 -15 40 -34 75 -41 77 -7 3 -10 -1
-6 -10z"/>
<path d="M4950 3433 c-47 -13 -92 -27 -100 -30 -8 -3 -22 -7 -30 -7 -8 -1 -43
-6 -78 -10 -72 -10 -71 -22 3 -51 25 -9 45 -22 45 -28 0 -15 -37 -97 -44 -97
-2 0 -39 18 -82 40 -85 43 -121 50 -131 23 -8 -21 48 -71 117 -104 32 -15 50
-30 50 -41 0 -22 15 -22 96 -1 l65 17 86 151 c47 82 87 153 90 158 2 4 3 6 1
6 -2 -1 -41 -12 -88 -26z"/>
<path d="M3991 3359 c0 -24 19 -102 43 -174 l43 -130 72 -3 c65 -3 71 -1 71
17 0 28 -89 294 -103 308 -7 6 -38 15 -69 18 l-58 7 1 -43z"/>
<path d="M2403 3239 c48 -113 53 -119 95 -96 22 13 21 14 -43 71 -64 57 -66
57 -52 25z"/>
<path d="M5007 3224 c-34 -33 -34 -48 -2 -40 56 14 76 26 73 44 -5 27 -42 26
-71 -4z"/>
<path d="M5920 2984 c0 -8 5 -12 10 -9 6 3 10 10 10 16 0 5 -4 9 -10 9 -5 0
-10 -7 -10 -16z"/>
<path d="M5954 2882 c8 -20 23 -59 35 -86 l21 -49 28 39 c16 22 31 44 35 51 5
8 -15 24 -62 48 l-70 35 13 -38z"/>
<path d="M3484 2387 c-42 -36 -125 -178 -131 -226 -11 -83 45 -37 141 113 57
88 67 128 35 134 -9 2 -29 -8 -45 -21z"/>
<path d="M3231 1953 c-41 -50 -112 -213 -114 -262 -4 -98 42 -49 122 129 35
77 61 147 57 155 -9 25 -33 17 -65 -22z"/>
<path d="M3047 1512 c-23 -25 -104 -209 -112 -252 -3 -19 -1 -42 4 -50 18 -27
56 25 116 156 57 126 63 164 26 164 -10 0 -25 -8 -34 -18z"/>
</g>
</svg>
